# xmcd
#
# Track frame offsets:
#	151
#	15730
#	29281
#	43544
#	66705
#	80056
#	92777
#	105332
#	119541
#	132490
#	147539
#	161368
#	176873
#	198744
#	213055
#	234048
#
# Disc length: 3693
#
# Revision: 1
# Processed by: cddbd v1.5.1PL0 Copyright (c) Steve Scherf et al.
# Submitted via: CDex 1.50
# Normalized: r0:DSETVAR1,TDELIM( - )
#
DISCID=e40e6b10
DTITLE=Various Artist - 傳世爵士音樂 1-2
DYEAR=1900
DGENRE=Jazz
TTITLE0=Louis Armstrong - Blueberry Hill
TTITLE1=Billie Holiday - All Of Me
TTITLE2=Ella Fitzgerald - Rei Mir Bist Du Schoen
TTITLE3=Marilyn Monroe - My Heart Belongs To Daddy
TTITLE4=Joe Williams - Everybody Loves My Baby
TTITLE5=Carmen McRae - Nice Work If You Can Get It
TTITLE6=Gertrude Lawrence - Someone To Watch Over Me
TTITLE7=Bessie Smith - Trombone Cholly
TTITLE8=Midge Williams - Where The Lazy River Goes By
TTITLE9=Helen Ward - How Am I To Know
TTITLE10=Bing Crosby - Now That I Need You
TTITLE11=Lena Horne - Lover Man
TTITLE12=Helen Merill - The Thrill Is Gone
TTITLE13=Judy Garland - Over The Rainbow
TTITLE14=Jackie Paris and Anne Marie Moss - Nothing
TTITLE15=Lambert, Hendricks, Ross - Poppity Pop
EXTD=
EXTT0=
EXTT1=
EXTT2=
EXTT3=
EXTT4=
EXTT5=
EXTT6=
EXTT7=
EXTT8=
EXTT9=
EXTT10=
EXTT11=
EXTT12=
EXTT13=
EXTT14=
EXTT15=
PLAYORDER=
